# xmcd
# 
# Track frame offsets:
#     150
#     17462
#     32227
#     47890
#     62937
#     79602
#     97524
#     113925
#     129101
#     150096
#     166926
#     184306
#     197395
#     211697
#     227939
#     255355
# 
# Disc length: 3720
# 
# Revision: 1
# Processed by: cddbd v1.5.2PL0 Copyright (c) Steve Scherf et al.
# Submitted via: fre:ac v1.1beta1pre3
# 
DISCID=b80e8610
DTITLE=Jo Dee Messina - Greatest Hits
DYEAR=2003
DGENRE=Country
TTITLE0=Was That My Life
TTITLE1=I'm Alright
TTITLE2=Heads Carolina, Tails California
TTITLE3=Bye-Bye
TTITLE4=Stand Beside Me
TTITLE5=Bring On The Rain Featuring Tim McGraw
TTITLE6=Lesson In Leavin'
TTITLE7=That's The Way
TTITLE8=Burn
TTITLE9=Downtime
TTITLE10=Because You Love Me
TTITLE11=You're Not In Kansas Anymore
TTITLE12=Wishing Well
TTITLE13=You Belong In The Sun
TTITLE14=I Wish
TTITLE15=Bring On The Rain (With Tim McGraw) - The Video
EXTD=
EXTT0=
EXTT1=
EXTT2=
EXTT3=
EXTT4=
EXTT5=
EXTT6=
EXTT7=
EXTT8=
EXTT9=
EXTT10=
EXTT11=
EXTT12=
EXTT13=
EXTT14=
EXTT15=
PLAYORDER=
